<svg width="24" height="24" viewBox="0 0 24 24" fill="none" xmlns="http://www.w3.org/2000/svg">
<g id="Water Transportation">
<path id="Vector" d="M7.5 0V3H4.5V7.39453L12 5.25L19.5 7.39453V3H16.5V0H7.5ZM12 7.5L1.5 10.5L3.99902 19.5H1.5V22.5H4.5L7.72559 21.2109L8.70703 21.1816L12 22.5L15.75 21L19.5 22.5H22.5V19.5H19.9014L22.5 10.5L12 7.5ZM6 12C6.828 12 7.5 12.672 7.5 13.5C7.5 14.328 6.828 15 6 15C5.172 15 4.5 14.328 4.5 13.5C4.5 12.672 5.172 12 6 12ZM18 12C18.828 12 19.5 12.672 19.5 13.5C19.5 14.328 18.828 15 18 15C17.172 15 16.5 14.328 16.5 13.5C16.5 12.672 17.172 12 18 12Z" fill="#D946EF"/>
</g>
</svg>
