<svg width="20" height="20" viewBox="0 0 20 20" fill="none" xmlns="http://www.w3.org/2000/svg">
<path id="Vector" opacity="0.5" d="M8.52145 14.1036L8.875 14.4571L9.22855 14.1036L15.6036 7.72855L15.9596 7.37248L15.601 7.01894L14.4599 5.89394L14.132 5.5707L13.7829 5.87087L8.83669 10.1235L5.77735 8.08397L5.36132 7.80662L5.08397 8.22265L4.33397 9.34765L4.1066 9.68871L4.39645 9.97855L8.52145 14.1036ZM0.75 10C0.75 4.89152 4.89152 0.75 10 0.75C15.1085 0.75 19.25 4.89152 19.25 10C19.25 15.1085 15.1085 19.25 10 19.25C4.89152 19.25 0.75 15.1085 0.75 10Z" stroke="#86EFAC"/>
</svg>
