<svg width="24" height="24" viewBox="0 0 24 24" fill="none" xmlns="http://www.w3.org/2000/svg">
<g id="Connected" clip-path="url(#clip0_320_19)">
<path id="Vector" d="M24 7.5L21.531 5.031L23.781 2.781L21.6585 0.6585L19.4085 2.9085L16.5 0H13.5L10.5 3L9.00004 1.5L6.75004 3.75L20.25 17.25L22.5 15L21 13.5L24 10.5V7.5ZM1.93954 8.5605L3.43954 10.0605L4.49196e-05 13.5L-0.0539551 16.5L2.66254 19.2165L0.439545 21.4395L2.56054 23.5605L4.78354 21.3375L7.44755 24H10.5L13.5 21L13.9395 20.5605L15.4395 22.0605L17.6895 19.8105L4.18954 6.3105L1.93954 8.5605Z" fill="#F59E0B"/>
</g>
<defs>
<clipPath id="clip0_320_19">
<rect width="24" height="24" fill="white"/>
</clipPath>
</defs>
</svg>
