<svg width="64" height="64" viewBox="0 0 64 64" fill="none" xmlns="http://www.w3.org/2000/svg">
<g id="Copy to Clipboard">
<path id="Vector" d="M36.578 6C35.806 4.236 34.049 3 32 3C29.951 3 28.194 4.236 27.422 6H22V12C22 13.105 22.895 14 24 14H40C41.105 14 42 13.105 42 12V6H36.578ZM32 10C30.895 10 30 9.105 30 8C30 6.895 30.895 6 32 6C33.105 6 34 6.895 34 8C34 9.105 33.105 10 32 10ZM49 27H53V6H44V11H49C49 13.95 49 19.65 49 27ZM42 31H53V35H42V31ZM56 35H60V39H64V31H56V35ZM42 60H53V64H42V60ZM35 39V35H39V31H31V39H35ZM39 60H35V56H31V64H39V60ZM31 42H35V53H31V42ZM27 56C20.02 56 15 56 15 56V11H20V6H11V60H27V56ZM60 56V60H56V64H64V56H60ZM60 42H64V53H60V42Z" fill="white"/>
</g>
</svg>
