<svg width="33" height="32" viewBox="0 0 33 32" fill="none" xmlns="http://www.w3.org/2000/svg">
<g id="Crowd" clip-path="url(#clip0_239_59)">
<path id="Vector" d="M9.33337 2C8.53772 2 7.77466 2.31607 7.21205 2.87868C6.64944 3.44129 6.33337 4.20435 6.33337 5C6.33337 5.79565 6.64944 6.55871 7.21205 7.12132C7.77466 7.68393 8.53772 8 9.33337 8C10.129 8 10.8921 7.68393 11.4547 7.12132C12.0173 6.55871 12.3334 5.79565 12.3334 5C12.3334 4.20435 12.0173 3.44129 11.4547 2.87868C10.8921 2.31607 10.129 2 9.33337 2ZM23.3334 2C22.5377 2 21.7747 2.31607 21.2121 2.87868C20.6494 3.44129 20.3334 4.20435 20.3334 5C20.3334 5.79565 20.6494 6.55871 21.2121 7.12132C21.7747 7.68393 22.5377 8 23.3334 8C24.129 8 24.8921 7.68393 25.4547 7.12132C26.0173 6.55871 26.3334 5.79565 26.3334 5C26.3334 4.20435 26.0173 3.44129 25.4547 2.87868C24.8921 2.31607 24.129 2 23.3334 2ZM16.3334 8C15.2725 8 14.2551 8.42143 13.5049 9.17157C12.7548 9.92172 12.3334 10.9391 12.3334 12C12.3334 13.0609 12.7548 14.0783 13.5049 14.8284C14.2551 15.5786 15.2725 16 16.3334 16C17.3942 16 18.4117 15.5786 19.1618 14.8284C19.9119 14.0783 20.3334 13.0609 20.3334 12C20.3334 10.9391 19.9119 9.92172 19.1618 9.17157C18.4117 8.42143 17.3942 8 16.3334 8ZM6.33337 12C5.27251 12 4.25509 12.4214 3.50495 13.1716C2.7548 13.9217 2.33337 14.9391 2.33337 16C2.33337 17.0609 2.7548 18.0783 3.50495 18.8284C4.25509 19.5786 5.27251 20 6.33337 20C7.39424 20 8.41166 19.5786 9.1618 18.8284C9.91195 18.0783 10.3334 17.0609 10.3334 16C10.3334 14.9391 9.91195 13.9217 9.1618 13.1716C8.41166 12.4214 7.39424 12 6.33337 12ZM26.3334 12C25.2725 12 24.2551 12.4214 23.5049 13.1716C22.7548 13.9217 22.3334 14.9391 22.3334 16C22.3334 17.0609 22.7548 18.0783 23.5049 18.8284C24.2551 19.5786 25.2725 20 26.3334 20C27.3942 20 28.4117 19.5786 29.1618 18.8284C29.9119 18.0783 30.3334 17.0609 30.3334 16C30.3334 14.9391 29.9119 13.9217 29.1618 13.1716C28.4117 12.4214 27.3942 12 26.3334 12ZM16.3334 20C14.5635 20 12.9901 20.7813 11.892 22H6.33337C3.01937 22 0.333374 24.686 0.333374 28V30H10.3334H22.3334H32.3334V28C32.3334 24.686 29.6474 22 26.3334 22H20.7748C19.6766 20.7813 18.1032 20 16.3334 20Z" fill="#D946EF"/>
</g>
<defs>
<clipPath id="clip0_239_59">
<rect width="32" height="32" fill="white" transform="translate(0.333374)"/>
</clipPath>
</defs>
</svg>
