<svg width="32" height="32" viewBox="0 0 32 32" fill="none" xmlns="http://www.w3.org/2000/svg">
<g id="Crowd">
<path id="Vector" d="M9 2C8.20435 2 7.44129 2.31607 6.87868 2.87868C6.31607 3.44129 6 4.20435 6 5C6 5.79565 6.31607 6.55871 6.87868 7.12132C7.44129 7.68393 8.20435 8 9 8C9.79565 8 10.5587 7.68393 11.1213 7.12132C11.6839 6.55871 12 5.79565 12 5C12 4.20435 11.6839 3.44129 11.1213 2.87868C10.5587 2.31607 9.79565 2 9 2ZM23 2C22.2044 2 21.4413 2.31607 20.8787 2.87868C20.3161 3.44129 20 4.20435 20 5C20 5.79565 20.3161 6.55871 20.8787 7.12132C21.4413 7.68393 22.2044 8 23 8C23.7956 8 24.5587 7.68393 25.1213 7.12132C25.6839 6.55871 26 5.79565 26 5C26 4.20435 25.6839 3.44129 25.1213 2.87868C24.5587 2.31607 23.7956 2 23 2ZM16 8C14.9391 8 13.9217 8.42143 13.1716 9.17157C12.4214 9.92172 12 10.9391 12 12C12 13.0609 12.4214 14.0783 13.1716 14.8284C13.9217 15.5786 14.9391 16 16 16C17.0609 16 18.0783 15.5786 18.8284 14.8284C19.5786 14.0783 20 13.0609 20 12C20 10.9391 19.5786 9.92172 18.8284 9.17157C18.0783 8.42143 17.0609 8 16 8ZM6 12C4.93913 12 3.92172 12.4214 3.17157 13.1716C2.42143 13.9217 2 14.9391 2 16C2 17.0609 2.42143 18.0783 3.17157 18.8284C3.92172 19.5786 4.93913 20 6 20C7.06087 20 8.07828 19.5786 8.82843 18.8284C9.57857 18.0783 10 17.0609 10 16C10 14.9391 9.57857 13.9217 8.82843 13.1716C8.07828 12.4214 7.06087 12 6 12ZM26 12C24.9391 12 23.9217 12.4214 23.1716 13.1716C22.4214 13.9217 22 14.9391 22 16C22 17.0609 22.4214 18.0783 23.1716 18.8284C23.9217 19.5786 24.9391 20 26 20C27.0609 20 28.0783 19.5786 28.8284 18.8284C29.5786 18.0783 30 17.0609 30 16C30 14.9391 29.5786 13.9217 28.8284 13.1716C28.0783 12.4214 27.0609 12 26 12ZM16 20C14.2302 20 12.6567 20.7813 11.5586 22H6C2.686 22 0 24.686 0 28V30H10H22H32V28C32 24.686 29.314 22 26 22H20.4414C19.3433 20.7813 17.7698 20 16 20Z" fill="#F59E0B"/>
</g>
</svg>
