<svg width="32" height="32" viewBox="0 0 32 32" fill="none" xmlns="http://www.w3.org/2000/svg">
<g id="FAQ">
<path id="Vector" d="M11.5 3C6.8055 3 3 6.8055 3 11.5C3 13.4204 3.63858 15.19 4.71289 16.6123L4 20L7.88672 19.1816C8.70577 19.5672 9.5916 19.8337 10.5283 19.9404C10.6613 17.5869 11.6269 15.5473 13.1279 14.0098L12.917 13.2822H10.0576L9.64551 14.7773H8.38965L10.6855 7H12.2998L14.1016 13.1299C15.7096 11.8859 17.7466 11.1269 19.9766 11.0234C19.7276 6.55194 16.0335 3 11.5 3ZM11.4766 8.18066L10.3828 12.1348H12.5928L11.4766 8.18066ZM20.5 12C15.8055 12 12 15.8055 12 20.5C12 25.1945 15.8055 29 20.5 29C21.8557 29 23.1324 28.6738 24.2695 28.1094L28.5 29L27.6689 25.0537C28.5074 23.7365 29 22.1772 29 20.5C29 15.8055 25.1945 12 20.5 12ZM20.5 16.5039C22.352 16.5039 23.6191 17.999 23.6191 20.501C23.6191 21.79 23.2735 22.8187 22.6885 23.5117L23.2734 24.2695L22.4072 24.9629L21.8535 24.1826C21.453 24.3886 20.9985 24.4971 20.5 24.4971C18.648 24.4971 17.3809 22.992 17.3809 20.501C17.3809 17.999 18.648 16.5039 20.5 16.5039ZM20.5 17.7061C19.276 17.7061 18.5176 18.638 18.5176 20.501C18.5176 22.386 19.384 23.3271 20.5 23.3271C20.7275 23.3271 20.9449 23.2955 21.1504 23.209L20.0674 21.7891L20.9229 21.0635L21.9727 22.5371C22.2867 22.0716 22.4834 21.389 22.4834 20.501C22.4829 18.638 21.724 17.7061 20.5 17.7061Z" fill="#94A3B8"/>
</g>
</svg>
