<svg width="16" height="16" viewBox="0 0 16 16" fill="none" xmlns="http://www.w3.org/2000/svg">
<g id="Light">
<path id="Vector" d="M7.88132 0.50233C6.72663 0.547003 5.56265 0.948424 4.67234 1.72499C4.16234 2.16249 3.75019 2.71221 3.47019 3.31971C3.18769 3.92971 3.04738 4.59471 3.02488 5.25721C3.00488 5.91221 3.09765 6.57508 3.30515 7.20008C3.51015 7.82508 3.82482 8.39737 4.15232 8.91737C4.47982 9.43987 4.80743 9.92969 5.02243 10.4247C5.12993 10.6722 5.19978 10.9174 5.23728 11.1674C5.25478 11.2949 5.25974 11.4123 5.25974 11.5473L5.25486 11.7499H6.24509L6.24021 11.5473C6.23771 11.3798 6.22724 11.1973 6.19724 11.0248C6.14474 10.6773 6.03738 10.3424 5.89988 10.0399C5.62488 9.42743 5.25724 8.92225 4.94724 8.42225C4.63474 7.92225 4.36486 7.42967 4.19236 6.90467C4.01986 6.38467 3.94249 5.83504 3.95749 5.28504C3.98249 4.19504 4.47478 3.14491 5.29978 2.45741C6.11978 1.75991 7.22974 1.43965 8.32224 1.50965C9.40974 1.57465 10.4526 2.05243 11.1426 2.85243C11.8376 3.64243 12.1573 4.73254 12.0273 5.78504C11.9698 6.30754 11.8025 6.79985 11.5425 7.27235C11.3172 7.68574 11.0192 8.08509 10.7002 8.50086V8.49989C9.73539 9.56438 9.09101 10.4465 8.7031 11.0258C8.69154 10.7722 8.67898 10.5186 8.66745 10.265L8.62986 9.40467C8.62486 9.06967 8.56251 8.71999 8.47751 8.41249C8.30001 7.78749 8.0324 7.23235 7.7324 6.70985C7.5274 6.35485 7.31255 6.01983 7.08005 5.68983C7.14255 5.66483 7.20743 5.64239 7.27243 5.62489C7.50743 5.55239 7.75497 5.51747 7.99997 5.51747C8.24497 5.51747 8.49251 5.55239 8.72751 5.62489C8.80251 5.64489 8.8748 5.67258 8.9448 5.70008L8.43747 6.45985C8.61997 6.66485 8.8398 6.96754 9.0073 7.41004L10.0849 5.79481L10.0898 5.78749C10.2348 5.56999 10.1826 5.27501 9.97263 5.12001L9.96726 5.11756C9.78726 4.99006 9.65515 4.9226 9.49265 4.8451C9.33765 4.7751 9.17767 4.71243 9.01267 4.66493C8.68767 4.56743 8.34247 4.51747 7.99997 4.51747C7.65747 4.51747 7.31228 4.56743 6.98728 4.66493C6.82228 4.71243 6.6623 4.7751 6.5073 4.8451C6.3448 4.9226 6.21269 4.99006 6.03269 5.11756C5.89769 5.21256 5.82761 5.36252 5.82761 5.51503C5.82761 5.61252 5.85745 5.71225 5.91745 5.79725L5.93503 5.82215C6.24003 6.25215 6.53249 6.73999 6.76999 7.22499C7.00749 7.70999 7.20503 8.21258 7.31003 8.70008C7.35753 8.94758 7.38509 9.16717 7.37009 9.40467L7.33249 10.265C7.30999 10.76 7.29017 11.2549 7.26267 11.7499L8.73728 11.7499H9.26999H10.3501H10.7324L10.7251 11.5048C10.7201 11.2898 10.7551 11.0749 10.8276 10.8549C10.9751 10.4099 11.2824 9.94491 11.6274 9.45741C11.9724 8.96991 12.3524 8.44749 12.6499 7.84999C12.9524 7.25499 13.1576 6.57741 13.2051 5.89491C13.2576 5.21741 13.1826 4.53221 12.9726 3.88221C12.7626 3.23471 12.4126 2.62983 11.9526 2.12733C11.0351 1.10983 9.69497 0.552271 8.37497 0.504771C8.21122 0.496646 8.04628 0.495948 7.88132 0.50233ZM5.74997 12.2699V14.4999C5.74997 14.4999 6.39247 15.4999 7.99997 15.4999C9.60747 15.4999 10.25 14.4999 10.25 14.4999L10.25 12.4774L5.74997 12.2699Z" fill="url(#paint0_linear_529_414)"/>
</g>
<defs>
<linearGradient id="paint0_linear_529_414" x1="8.12171" y1="0.498047" x2="8" y2="12" gradientUnits="userSpaceOnUse">
<stop offset="0.989425" stop-color="#FCD34D"/>
<stop offset="1" stop-color="white"/>
</linearGradient>
</defs>
</svg>
