<svg width="16" height="16" viewBox="0 0 16 16" fill="none" xmlns="http://www.w3.org/2000/svg">
<g id="Home">
<path id="Vector" d="M4.2251 1.33325C1.2426 1.33325 1.0925 4.94325 0 6.33325C0 6.87442 1.17174 8.38269 2.58301 8.94604L2.55713 9.65356L0.584961 10.3708C0.949961 11.0333 2.45 11.8333 4.25 11.8333C4.465 11.8333 4.67732 11.8205 4.88232 11.8005C4.80982 11.6755 4.74744 11.5458 4.68994 11.4158C4.57244 11.3108 4.46982 11.1907 4.38232 11.0632C4.33982 11.0657 4.295 11.0657 4.25 11.0657C3.83373 11.0657 3.50696 10.9969 3.26074 10.9163L3.31592 9.42554C3.56553 9.60376 3.80575 9.73192 4.00244 9.79077C4.00994 9.51077 4.0776 9.26579 4.1626 9.06079C3.8101 8.92579 2.86242 8.26552 2.48242 7.09302L2.43018 6.94556L2.29736 6.87573C2.26486 6.85823 2 6.70571 2 6.35571C2 6.13821 2.15234 5.96069 2.15234 5.96069L2.25 5.85327V5.15552C2.4075 5.08552 3.995 4.37075 4.75 3.33325L5 4.08325C5.595 4.08325 5.75 3.58325 5.75 3.58325C5.96 3.89825 6.08766 4.43573 6.16016 4.87573C6.69016 4.63323 7.2776 4.4981 7.8501 4.4231C7.3476 2.9356 6.2876 1.33325 4.2251 1.33325ZM12.25 1.33325C9.3125 1.33325 8.74994 3.27089 8.75244 4.34839C9.07744 4.33589 9.38246 4.33325 9.64746 4.33325C9.72246 4.02825 9.835 3.74825 10 3.58325C10 3.58325 10.785 3.83325 11.75 3.83325C12.715 3.83325 13.25 3.58325 13.25 3.58325C14 4.22575 14 5.83325 14 5.83325H14.002L14.0024 5.85327L14.0952 5.95825C14.0977 5.96075 14.25 6.13821 14.25 6.35571C14.25 6.70571 13.985 6.85829 13.9575 6.87329L13.8174 6.94312L13.7676 7.09302C13.3826 8.27802 12.2426 8.97325 11.9976 9.08325H11.75H11.5723C11.6673 9.28575 11.745 9.53825 11.75 9.83325H12.0552C12.1944 9.83325 12.5524 9.66131 12.9565 9.35767L13.0557 10.7903C12.8156 10.9093 12.3808 11.0657 11.75 11.0657C11.5975 11.0657 11.4552 11.0558 11.3252 11.0408C11.2477 11.1333 11.17 11.2059 11.1025 11.2659C11.0325 11.4359 10.9475 11.6034 10.8525 11.7659C11.14 11.8109 11.44 11.8333 11.75 11.8333C13.585 11.8333 15.1076 11.0033 15.4326 10.3333L13.7168 9.48267L13.6636 8.70972C13.9724 8.36165 14.2547 7.94141 14.4351 7.45581C14.6901 7.27331 15 6.90571 15 6.35571C15 6.01071 14.855 5.73575 14.75 5.58325V4.95825V4.5481C14.75 3.80446 14.5381 2.6401 13.9082 2.62036C13.9013 2.61308 13.8937 2.60656 13.8867 2.59937L13.8652 2.52808C13.6477 1.81808 12.9925 1.33325 12.25 1.33325ZM9.75 4.83325C6.5 4.83325 5 5.58325 5 8.08325V8.45825V9.09448C4.89885 9.22987 4.75 9.46784 4.75 9.85718C4.75 10.518 5.15364 10.8222 5.32764 10.9373C5.51165 11.4368 5.78909 11.8594 6.08691 12.2024L6.0332 12.9827L4.31641 13.8323C4.64116 14.502 6.1655 15.3333 8 15.3333C9.8345 15.3333 11.3588 14.502 11.6836 13.8323L9.9668 12.9827L9.91309 12.2024C10.2109 11.8594 10.4884 11.4368 10.6724 10.9373C10.8464 10.8222 11.25 10.518 11.25 9.85718C11.25 9.46784 11.1011 9.22987 11 9.09448V8.45825V8.04761C11 7.29978 10.7866 6.12617 10.1479 6.11938C10.1456 6.11697 10.1429 6.11496 10.1406 6.11255L9.75 4.83325ZM6.25 7.08325C6.25 7.08325 7.03575 7.33325 8 7.33325C8.96425 7.33325 9.5 7.08325 9.5 7.08325C10.25 7.726 10.25 9.33325 10.25 9.33325V9.35376L10.3481 9.46118C10.3481 9.46118 10.5 9.64884 10.5 9.85718C10.5 10.2536 10.2085 10.3723 10.2085 10.3723L10.0669 10.4421L10.0186 10.5925C9.81168 11.2295 9.37212 11.7437 8.96436 12.094C8.76048 12.2691 8.56526 12.4032 8.4209 12.4895C8.34872 12.5327 8.28863 12.564 8.25146 12.5813C8.24893 12.5825 8.24939 12.5822 8.24707 12.5833H8H7.75293C7.7506 12.5822 7.75108 12.5825 7.74854 12.5813C7.71137 12.564 7.65128 12.5327 7.5791 12.4895C7.43474 12.4032 7.23952 12.2691 7.03564 12.094C6.62788 11.7437 6.18832 11.2295 5.98145 10.5925L5.93311 10.4421L5.7915 10.3723C5.7915 10.3723 5.5 10.2536 5.5 9.85718C5.5 9.64884 5.65186 9.46118 5.65186 9.46118L5.75 9.35376V9.33325C5.75 9.33325 5.71425 7.619 6.25 7.08325ZM6.79346 12.8567C6.93875 12.9663 7.07734 13.0634 7.19385 13.1331C7.28446 13.1872 7.36355 13.2291 7.43213 13.261C7.46642 13.2769 7.49775 13.2904 7.53223 13.3025C7.5667 13.3146 7.58398 13.3333 7.69434 13.3333H8H8.30566C8.41602 13.3333 8.4333 13.3146 8.46777 13.3025C8.50225 13.2904 8.53358 13.2769 8.56787 13.261C8.63645 13.2291 8.71554 13.1872 8.80615 13.1331C8.92266 13.0634 9.06125 12.9663 9.20654 12.8567L9.30518 14.2898C9.06502 14.4088 8.63063 14.5647 8 14.5647C7.36937 14.5647 6.93498 14.4088 6.69482 14.2898L6.79346 12.8567Z" fill="white"/>
</g>
</svg>
