<svg width="16" height="16" viewBox="0 0 16 16" fill="none" xmlns="http://www.w3.org/2000/svg">
<g id="Notification">
<path id="Vector" d="M7.5 1C7.19575 1 6.96188 1.26955 7.00488 1.5708L7.07568 2.06592C4.96343 2.31117 3.97314 3.4 3.97314 4.5C3.97314 8.18675 2.93693 10.1593 2.77393 10.4473L13.0488 10.0933C12.7018 9.33351 12.0269 7.474 12.0269 4.5C12.0269 3.39975 11.0366 2.31117 8.92432 2.06592L8.99512 1.5708C9.03812 1.26955 8.80425 1 8.5 1H7.5ZM2 11C2 11 1 11.25 1 13.25H6.51172C6.63688 13.9598 7.25422 14.5 8 14.5C8.74578 14.5 9.36312 13.9598 9.48828 13.25H15C15 11.25 14 11 14 11H2Z" fill="white"/>
</g>
</svg>
