<svg width="16" height="16" viewBox="0 0 16 16" fill="none" xmlns="http://www.w3.org/2000/svg">
<g id="Right Button">
<path id="Vector" d="M1.95575 11.792C2.0925 12.9747 3.02525 13.9075 4.208 14.0442C5.15625 14.154 6.434 14.25 8 14.25C9.566 14.25 10.8438 14.154 11.792 14.0442C12.9747 13.9075 13.9075 12.9747 14.0442 11.792C14.154 10.8438 14.25 9.566 14.25 8C14.25 6.434 14.154 5.15625 14.0442 4.208C13.9075 3.02525 12.9747 2.0925 11.792 1.95575C10.8438 1.846 9.566 1.75 8 1.75C6.434 1.75 5.15625 1.846 4.208 1.95575C3.02525 2.0925 2.0925 3.02525 1.95575 4.208C1.846 5.15625 1.75 6.434 1.75 8C1.75 9.566 1.846 10.8438 1.95575 11.792ZM10.6927 8L10.179 8.5055L6.86925 11.762L6.1305 11.088L8.65725 8L6.13075 4.912L6.8695 4.238L10.1792 7.4945L10.6927 8Z" fill="#E2E8F0"/>
</g>
</svg>
