<svg width="16" height="16" viewBox="0 0 16 16" fill="none" xmlns="http://www.w3.org/2000/svg">
<g id="Safety Collection Place">
<path id="Vector" d="M0.75 2L0.75 4.5H1.75L1.75 3L3.25 3V2L0.75 2ZM12.75 2V3L14.25 3V4.5H15.25V2L12.75 2ZM8 4.75C7.30975 4.75 6.75 5.30975 6.75 6V6.32129C6.75 7.01154 7.28575 7.75 8 7.75C8.71425 7.75 9.25 7.01154 9.25 6.32129V6C9.25 5.30975 8.69025 4.75 8 4.75ZM4.75 5C4.12875 5 3.625 5.46649 3.625 6.04199L3.625 6.30957C3.625 6.88482 4.10725 7.5 4.75 7.5C5.39275 7.5 5.875 6.88482 5.875 6.30957V6.04199C5.875 5.46649 5.37125 5 4.75 5ZM11.25 5C10.6287 5 10.125 5.46649 10.125 6.04199V6.30957C10.125 6.88482 10.6073 7.5 11.25 7.5C11.8927 7.5 12.375 6.88482 12.375 6.30957V6.04199C12.375 5.46649 11.8713 5 11.25 5ZM8.00049 8.75C6.98799 8.75 6.10048 8.98877 5.60498 9.15527C5.34898 9.24127 5.15942 9.45766 5.10742 9.72266L5.00391 10.25L10.9961 10.25L10.8926 9.72266C10.8408 9.45766 10.6513 9.24127 10.395 9.15527C9.89977 8.98902 9.01274 8.75 8.00049 8.75ZM4.71973 8.87402C3.80323 8.87877 3.00102 9.09412 2.55127 9.24512C2.31602 9.32412 2.14223 9.52261 2.09473 9.76611L2 10.25H4.24023L4.26807 10.106L4.37109 9.57861C4.42309 9.31261 4.54598 9.07077 4.71973 8.87402ZM11.2803 8.87402C11.454 9.07077 11.5769 9.31261 11.6289 9.57861L11.7319 10.106L11.7598 10.25H14L13.9053 9.76611C13.8578 9.52261 13.684 9.32412 13.4487 9.24512C12.999 9.09412 12.1968 8.87877 11.2803 8.87402ZM0.75 11.5L0.75 14H3.25V13H1.75L1.75 11.5H0.75ZM14.25 11.5V13H12.75V14H15.25V11.5H14.25Z" fill="white"/>
</g>
</svg>
