<svg width="32" height="66" viewBox="0 0 32 66" fill="none" xmlns="http://www.w3.org/2000/svg">
<g clip-path="url(#clip0_1_2)">
<path d="M8 8C8 8.8 6.66667 9 6 9C7.6 9 8 9.66667 8 10C8 9.2 9.33333 9 10 9C8.4 9 8 8.33333 8 8Z" fill="#D9D9D9"/>
<path d="M21 12C21 14.4 19 15 18 15C20.4 15 21 17 21 18C21 15.6 23 15 24 15C21.6 15 21 13 21 12Z" fill="#D9D9D9"/>
<path d="M12 19C12 20.6 10.6667 21 10 21C11.6 21 12 22.3333 12 23C12 21.4 13.3333 21 14 21C12.4 21 12 19.6667 12 19Z" fill="#D9D9D9"/>
<path d="M27 6C27 6.8 26.3333 7 26 7C26.8 7 27 7.66667 27 8C27 7.2 27.6667 7 28 7C27.2 7 27 6.33333 27 6Z" fill="#D9D9D9"/>
<path d="M14 3C14 4.6 12.6667 5 12 5C13.6 5 14 6.33333 14 7C14 5.4 15.3333 5 16 5C14.4 5 14 3.66667 14 3Z" fill="#D9D9D9"/>
<path d="M27 20C27 21.6 25.6667 22 25 22C26.6 22 27 23.3333 27 24C27 22.4 28.3333 22 29 22C27.4 22 27 20.6667 27 20Z" fill="#D9D9D9"/>
<path d="M5 15C5 16.6 3.66667 17 3 17C4.6 17 5 18.3333 5 19C5 17.4 6.33333 17 7 17C5.4 17 5 15.6667 5 15Z" fill="#D9D9D9"/>
<path d="M15 31C15 31.8 14.3333 32 14 32C14.8 32 15 32.6667 15 33C15 32.2 15.6667 32 16 32C15.2 32 15 31.3333 15 31Z" fill="#D9D9D9"/>
<path d="M17 7C17 8.6 15.6667 9 15 9C16.6 9 17 10.3333 17 11C17 9.4 18.3333 9 19 9C17.4 9 17 7.66667 17 7Z" fill="#D9D9D9"/>
<path d="M29 11C29 12.6 27.6667 13 27 13C28.6 13 29 14.3333 29 15C29 13.4 30.3333 13 31 13C29.4 13 29 11.6667 29 11Z" fill="#D9D9D9"/>
<path d="M21 18C21 19.6 19.6667 20 19 20C20.6 20 21 21.3333 21 22C21 20.4 22.3333 20 23 20C21.4 20 21 18.6667 21 18Z" fill="#D9D9D9"/>
<path d="M24 2C24 4.4 22 5 21 5C23.4 5 24 7 24 8C24 5.6 26 5 27 5C24.6 5 24 3 24 2Z" fill="#D9D9D9"/>
<path d="M14 14C14 15.6 12.6667 16 12 16C13.6 16 14 17.3333 14 18C14 16.4 15.3333 16 16 16C14.4 16 14 14.6667 14 14Z" fill="#D9D9D9"/>
<path d="M27 28C27 30.4 25 31 24 31C26.4 31 27 33 27 34C27 31.6 29 31 30 31C27.6 31 27 29 27 28Z" fill="#D9D9D9"/>
<path d="M8.5 29C8.5 30.2 7.5 30.5 7 30.5C8.2 30.5 8.5 31.5 8.5 32C8.5 30.8 9.5 30.5 10 30.5C8.8 30.5 8.5 29.5 8.5 29Z" fill="#D9D9D9"/>
<path d="M21 33C21 34.6 19.6667 35 19 35C20.6 35 21 36.3333 21 37C21 35.4 22.3333 35 23 35C21.4 35 21 33.6667 21 33Z" fill="#D9D9D9"/>
<path d="M13 40C13 41.6 11.6667 42 11 42C12.6 42 13 43.3333 13 44C13 42.4 14.3333 42 15 42C13.4 42 13 40.6667 13 40Z" fill="#D9D9D9"/>
<path d="M29 26C29 27.6 27.6667 28 27 28C28.6 28 29 29.3333 29 30C29 28.4 30.3333 28 31 28C29.4 28 29 26.6667 29 26Z" fill="#D9D9D9"/>
<path d="M16 24C16 26.4 14 27 13 27C15.4 27 16 29 16 30C16 27.6 18 27 19 27C16.6 27 16 25 16 24Z" fill="#D9D9D9"/>
<path d="M28 41C28 42.6 26.6667 43 26 43C27.6 43 28 44.3333 28 45C28 43.4 29.3333 43 30 43C28.4 43 28 41.6667 28 41Z" fill="#D9D9D9"/>
<path d="M6 36C6 38.4 4.66667 39 4 39C5.6 39 6 41 6 42C6 39.6 7.33333 39 8 39C6.4 39 6 37 6 36Z" fill="#D9D9D9"/>
<path d="M19.5 50C19.5 52 17.1667 52.5 16 52.5C18.8 52.5 19.5 54.1667 19.5 55C19.5 53 21.8333 52.5 23 52.5C20.2 52.5 19.5 50.8333 19.5 50Z" fill="#D9D9D9"/>
<path d="M2 50C2 51.6 0.666667 52 0 52C1.6 52 2 53.3333 2 54C2 52.4 3.33333 52 4 52C2.4 52 2 50.6667 2 50Z" fill="#D9D9D9"/>
<path d="M14 54C14 55.6 12.6667 56 12 56C13.6 56 14 57.3333 14 58C14 56.4 15.3333 56 16 56C14.4 56 14 54.6667 14 54Z" fill="#D9D9D9"/>
<path d="M6.5 61C6.5 61.8 4.83333 62 4 62C6 62 6.5 62.6667 6.5 63C6.5 62.2 8.16667 62 9 62C7 62 6.5 61.3333 6.5 61Z" fill="#D9D9D9"/>
<path d="M22 47C22 48.6 20.6667 49 20 49C21.6 49 22 50.3333 22 51C22 49.4 23.3333 49 24 49C22.4 49 22 47.6667 22 47Z" fill="#D9D9D9"/>
<path d="M9 45C9 47.4 7 48 6 48C8.4 48 9 50 9 51C9 48.6 11 48 12 48C9.6 48 9 46 9 45Z" fill="#D9D9D9"/>
<path d="M21 62C21 63.6 19.6667 64 19 64C20.6 64 21 65.3333 21 66C21 64.4 22.3333 64 23 64C21.4 64 21 62.6667 21 62Z" fill="#D9D9D9"/>
<path d="M29 48C29 49.6 27.6667 50 27 50C28.6 50 29 51.3333 29 52C29 50.4 30.3333 50 31 50C29.4 50 29 48.6667 29 48Z" fill="#D9D9D9"/>
<path d="M32 59C32 60.6 30.6667 61 30 61C31.6 61 32 62.3333 32 63C32 61.4 33.3333 61 34 61C32.4 61 32 59.6667 32 59Z" fill="#D9D9D9"/>
<path d="M27 55C27 57.4 25 58 24 58C26.4 58 27 60 27 61C27 58.6 29 58 30 58C27.6 58 27 56 27 55Z" fill="#D9D9D9"/>
</g>
<defs>
<clipPath id="clip0_1_2">
<rect width="32" height="66" fill="white"/>
</clipPath>
</defs>
</svg>
