<svg width="16" height="16" viewBox="0 0 16 16" fill="none" xmlns="http://www.w3.org/2000/svg">
<g id="Twitter">
<path id="Vector" d="M15.483 3.85975C14.9583 4.09225 14.394 4.24725 13.7988 4.3205C14.404 3.96125 14.8695 3.38825 15.088 2.71125C14.5218 3.04325 13.8945 3.287 13.227 3.4155C12.694 2.8505 11.9338 2.5 11.0915 2.5C9.47355 2.5 8.1623 3.8 8.1623 5.40275C8.1623 5.6295 8.1888 5.8505 8.2388 6.065C5.8048 5.94275 3.64605 4.78575 2.2018 3.02975C1.94805 3.45875 1.8053 3.96125 1.8053 4.4915C1.8053 5.49925 2.3213 6.38625 3.10805 6.909C2.6278 6.89425 2.1758 6.76075 1.78005 6.5465C1.78005 6.55525 1.78005 6.56825 1.78005 6.5805C1.78005 7.98875 2.79005 9.16125 4.1288 9.42825C3.88405 9.49525 3.62555 9.5325 3.35905 9.5325C3.1698 9.5325 2.98555 9.511 2.80705 9.479C3.1798 10.6298 4.2613 11.471 5.54255 11.4958C4.54005 12.273 3.27755 12.7385 1.90455 12.7385C1.6673 12.7385 1.43555 12.725 1.2063 12.6973C2.50305 13.5185 4.0433 14 5.69655 14C11.0838 14 14.0308 9.576 14.0308 5.73825C14.0308 5.6125 14.0268 5.48725 14.0208 5.3635C14.596 4.9575 15.0915 4.445 15.483 3.85975Z" fill="white"/>
</g>
</svg>
