<svg width="16" height="16" viewBox="0 0 16 16" fill="none" xmlns="http://www.w3.org/2000/svg">
<g id="Upload to Cloud">
<path id="Vector" d="M15.75 10.75C15.75 11.52 15.4625 12.22 14.9875 12.75H1.2075C0.6125 12.0875 0.25 11.21 0.25 10.25C0.25 8.33225 1.69275 6.752 3.55075 6.5295L3.7055 6.06525C3.291 5.98775 2.82925 5.97975 2.3125 6.07025C2.6325 4.325 4.1625 3 6 3C7.281 3 8.4115 3.64425 9.088 4.6255C9.579 4.235 10.1993 4 10.875 4C12.4625 4 13.75 5.2875 13.75 6.875C13.75 6.9175 13.75 6.96 13.7475 7.0025C13.2788 7.025 12.8413 7.2005 12.5218 7.3695L12.6505 7.7555C12.6838 7.7545 12.7163 7.75 12.75 7.75C14.4075 7.75 15.75 9.0925 15.75 10.75ZM7.26775 8.5L7.5 11.25H8.5L8.73225 8.5H10.25L8 5.75L5.75 8.5H7.26775Z" fill="#15803D"/>
</g>
</svg>
