<svg width="16" height="16" viewBox="0 0 16 16" fill="none" xmlns="http://www.w3.org/2000/svg">
<g id="Open Document">
<g id="Vector">
<path d="M2.75 1.5V14.5H10.7676L10.2393 13.5H3.75V2.5H9.17383C9.99633 2.5 10.25 2.84127 10.25 3.14502C10.25 3.59127 9.75 4.25 9.75 4.25C12.1903 5.405 12.25 5.35825 12.25 6.25V8.5H13.25V6.03857C13.25 5.52932 13.0702 5.03623 12.7427 4.64648L10.5273 2.01074C10.2553 1.68699 9.85415 1.5 9.43115 1.5H2.75ZM5.5 6.5V7.5H10.5V6.5H5.5ZM5.5 8.5V9.5H10.5V8.5H5.5ZM12.25 9.5L12.0176 12.25H10.25L12.75 16L15.25 12.25H13.4824L13.25 9.5H12.25ZM5.5 10.5V11.5H8.75V10.5H5.5Z" fill="white" style="mix-blend-mode:soft-light"/>
</g>
</g>
</svg>
